<mxfile host="app.diagrams.net" modified="2024-01-06T16:48:43.998Z" agent="Mozilla/5.0 (Macintosh; Intel Mac OS X 10.15; rv:120.0) Gecko/20100101 Firefox/120.0" version="22.1.17" etag="lBIjEodOnbIS8kGmezVY" type="github">
  <diagram name="Page-1" id="IX7bTFeNPfnCQBi6kF2d">
    <mxGraphModel>
      <root>
        <mxCell id="0" />
        <mxCell id="1" parent="0" />
      </root>
    </mxGraphModel>
  </diagram>
</mxfile>
